<?xml version="1.0" encoding="UTF-8" standalone="no"?>
<!-- Created with Inkscape (http://www.inkscape.org/) -->

<svg
   width="80"
   height="80"
   viewBox="0 0 21.166666 21.166667"
   version="1.1"
   id="svg1"
   xmlns:xlink="http://www.w3.org/1999/xlink"
   xmlns="http://www.w3.org/2000/svg"
   xmlns:svg="http://www.w3.org/2000/svg">
  <defs
     id="defs1">
    <linearGradient
       id="Gradient_15"
       gradientUnits="userSpaceOnUse"
       x1="0"
       y1="-40"
       x2="0"
       y2="40"
       spreadMethod="pad">
      <stop
         offset="0%"
         stop-color="#71CF93"
         id="stop31" />
      <stop
         offset="100%"
         stop-color="#59B15C"
         id="stop32" />
    </linearGradient>
    <linearGradient
       id="Gradient_16"
       gradientUnits="userSpaceOnUse"
       x1="-0.25"
       y1="-40.25"
       x2="-0.25"
       y2="3.25"
       spreadMethod="pad">
      <stop
         offset="0%"
         stop-color="#85DFAF"
         id="stop33" />
      <stop
         offset="100%"
         stop-color="#69C581"
         id="stop34" />
    </linearGradient>
    <linearGradient
       xlink:href="#Gradient_15"
       id="linearGradient19"
       gradientUnits="userSpaceOnUse"
       x1="0"
       y1="-40"
       x2="0"
       y2="40"
       spreadMethod="pad" />
    <linearGradient
       xlink:href="#Gradient_16"
       id="linearGradient20"
       gradientUnits="userSpaceOnUse"
       x1="-0.25"
       y1="-40.25"
       x2="-0.25"
       y2="3.25"
       spreadMethod="pad" />
  </defs>
  <g
     id="layer2"
     transform="translate(-32.646723,-16.337914)">
    <g
       id="green_body_square"
       transform="matrix(0.26458333,0,0,0.26458333,43.230056,26.921247)">
      <g
         id="g516">
        <g
           id="use516">
          <path
             fill="url(#Gradient_15)"
             stroke="none"
             d="M 40,-26 Q 39.75,-36 29.45,-36 H -29.5 q -10.25,0 -10.5,10 V 29.95 Q -39.75,40 -29.5,40 H 29.45 Q 39.75,40 40,29.95 Z"
             id="path18"
             style="fill:url(#linearGradient19)" />
          <path
             fill="url(#Gradient_16)"
             stroke="none"
             d="M 40,-29.5 Q 40,-40 29.45,-40 H -29.5 Q -40,-40 -40,-29.5 v 3.5 q 0.25,-10 10.5,-10 h 58.95 q 10.3,0 10.55,10 z"
             id="path19"
             style="fill:url(#linearGradient20)" />
        </g>
      </g>
    </g>
    <g
       id="face_d"
       transform="matrix(0.26458333,0,0,0.26458333,43.348081,27.753155)">
      <g
         id="g594">
        <g
           id="use594">
          <path
             fill="#ffffff"
             stroke="none"
             d="m -7.95,-3.15 q -2.9,-2.95 -7.05,-2.95 -4.15,0 -7.05,2.95 Q -25,-0.25 -25,3.9 h 20 q 0,-4.15 -2.95,-7.05 z"
             id="path15" />
        </g>
      </g>
      <g
         id="g595">
        <g
           id="use595">
          <path
             fill="#3d465d"
             stroke="none"
             d="M -10.75,-0.35 Q -12.5,-2.1 -15,-2.1 q -2.45,0 -4.2,1.75 Q -21,1.4 -21,3.9 h 12 q 0,-2.5 -1.75,-4.25 z"
             id="path12" />
        </g>
      </g>
      <g
         id="g596">
        <g
           id="use596">
          <path
             fill="#ffffff"
             stroke="none"
             d="M 22.05,-3.15 Q 19.15,-6.1 15,-6.1 10.85,-6.1 7.95,-3.15 5,-0.25 5,3.9 h 20 q 0,-4.15 -2.95,-7.05 z"
             id="path14" />
        </g>
      </g>
      <g
         id="g597">
        <g
           id="use597">
          <path
             fill="#3d465d"
             stroke="none"
             d="M 19.25,-0.35 Q 17.5,-2.1 15,-2.1 12.55,-2.1 10.8,-0.35 9,1.4 9,3.9 h 12 q 0,-2.5 -1.75,-4.25 z"
             id="path11" />
        </g>
      </g>
      <g
         id="g598">
        <g
           id="use598">
          <path
             fill="#3d465d"
             stroke="none"
             d="m -26.05,-3.5 0.8,2.9 q 0.2,0.85 0.9,1.25 0.7,0.4 1.5,0.2 L -7.4,-3.3 q 0.85,-0.2 1.25,-0.95 0.4,-0.65 0.2,-1.5 l -0.8,-2.9 q -0.2,-0.8 -0.9,-1.25 -0.7,-0.35 -1.55,-0.15 l -15.45,4.15 q -0.8,0.2 -1.2,0.9 -0.4,0.7 -0.2,1.5 z"
             id="path17" />
        </g>
      </g>
      <g
         id="g599">
        <g
           id="use599">
          <path
             fill="#3d465d"
             stroke="none"
             d="m 6.2,-9.15 q 0.35,0.65 1.2,0.85 l 15.45,4.15 q 0.8,0.25 1.55,-0.1 0.65,-0.45 0.85,-1.25 l 0.8,-2.9 q 0.2,-0.85 -0.15,-1.5 -0.45,-0.75 -1.25,-1 L 9.2,-15.05 q -0.85,-0.2 -1.5,0.25 -0.75,0.35 -0.95,1.2 l -0.8,2.9 q -0.2,0.8 0.25,1.55 z"
             id="path16" />
        </g>
      </g>
      <g
         id="g600">
        <g
           id="use600">
          <path
             fill="#3d465d"
             stroke="none"
             d="M 9.95,10.8 Q 9.25,10.35 8.4,10.6 7.6,10.8 7.15,11.45 6.75,12 6,12.5 q -1.85,1.15 -4.35,1.15 -1.15,0 -2.15,-0.2 -0.85,-0.15 -1.55,0.3 -0.7,0.35 -0.9,1.2 -0.2,0.75 0.3,1.45 0.4,0.6 1.3,0.8 1.35,0.3 3,0.3 3.85,0 6.65,-1.8 l -0.05,0.05 q 1.7,-1.05 2.5,-2.35 0.4,-0.7 0.2,-1.45 -0.25,-0.8 -1,-1.15 z"
             id="path13" />
        </g>
      </g>
    </g>
  </g>
</svg>
